<svg width="129" height="36" viewBox="0 0 129 36" fill="none" xmlns="http://www.w3.org/2000/svg"><path fill-rule="evenodd" clip-rule="evenodd" d="M40.308 16.717c1.498 0 1.95 1.277 1.95 1.977h-4.035c-.001-.992.739-1.977 2.085-1.977m4.3 5.907c-.425.134-.87.256-1.313.341-.52.099-1.06.153-1.608.153-1.77 0-3.158-.55-3.385-1.86h7.556a7.7 7.7 0 0 0 .155-1.502c0-2.977-1.587-5.71-5.636-5.71-3.933 0-6.026 2.879-6.026 6.105 0 3.718 2.785 5.845 6.673 5.845.99 0 1.715-.082 2.312-.196a10 10 0 0 0 1.882-.55zm54.352-5.907c1.496 0 1.949 1.277 1.949 1.977h-4.035c0-.992.739-1.977 2.086-1.977m4.3 5.907c-.426.134-.871.256-1.314.341a8.7 8.7 0 0 1-1.608.153c-1.771 0-3.157-.55-3.384-1.86h7.555c.056-.252.155-.861.155-1.502 0-2.977-1.587-5.71-5.635-5.71-3.934 0-6.027 2.879-6.027 6.105 0 3.718 2.784 5.845 6.673 5.845.99 0 1.714-.082 2.312-.196a10 10 0 0 0 1.881-.55zm-55.396-12.37v15.497h4.096V10.255zM60.187 23.16c-1.33 0-2.204-1.228-2.204-3.127 0-1.513.586-3.128 2.219-3.128 1.576 0 2.135 1.674 2.135 3.111 0 1.908-.85 3.144-2.15 3.144m-.054 2.836c3.196 0 6.432-1.879 6.432-6.076 0-2.498-1.586-5.855-6.231-5.855-4.783 0-6.528 3.253-6.528 6.046 0 3.505 2.608 5.885 6.327 5.885m8.213-11.68v11.435h4.096V14.316zm0-4.056v2.969h4.096V10.26zm7.341.945v3.11h-1.574v2.834h1.574v4.685c0 2.576 1.262 4.153 4.143 4.153.54 0 1.15-.052 1.712-.13.52-.073.981-.162 1.183-.223.004-.003-.03-2.987-.03-2.998-.132.042-1.06.188-1.4.188-.33 0-.82-.039-1.17-.372-.249-.239-.428-.627-.428-1.258V17.15h2.649v-2.834h-2.649v-3.532zm9.478 0v3.11h-1.574v2.834h1.574v4.685c0 2.576 1.263 4.153 4.144 4.153.539 0 1.15-.052 1.71-.13.521-.073.982-.162 1.184-.223.004-.003-.03-2.987-.03-2.998-.131.042-1.06.188-1.4.188-.33 0-.818-.039-1.168-.372-.25-.239-.428-.627-.428-1.258V17.15h2.647v-2.834h-2.647v-3.532z" fill="#fff"/><path fill-rule="evenodd" clip-rule="evenodd" d="M105.966 23.884c0-.278.059-.553.173-.81.114-.256.281-.49.491-.685.211-.197.46-.352.735-.459a2.4 2.4 0 0 1 1.735.001c.274.106.524.262.734.459.211.196.378.43.491.686.114.257.173.532.172.81 0 .56-.239 1.098-.664 1.495a2.35 2.35 0 0 1-1.602.619 2.35 2.35 0 0 1-1.602-.62 2.05 2.05 0 0 1-.663-1.496" fill="#a7c954"/><path fill-rule="evenodd" clip-rule="evenodd" d="M18.499 25.769h4.636c.314 0 .694-.008.991-.022 6.345-.306 8.985-3.81 8.985-7.859 0-5.056-3.653-7.888-9.958-7.888a58 58 0 0 0-4.654.177zm5.927-3.088a9 9 0 0 1-.59.019h-1.3c.002-.001 0-9.524 0-9.524a19 19 0 0 1 1.402-.063c2.381 0 4.92 1.443 4.92 4.775 0 3.476-2.386 4.635-4.432 4.793" fill="#fff"/></svg>