<svg width="129" height="36" viewBox="0 0 129 36" fill="none" xmlns="http://www.w3.org/2000/svg"><g clip-path="url(#a)"><path d="M111.88 9.835q-.015-.052-.036-.106c-8.369.004-16.735 0-25.1.004a.15.15 0 0 0-.04.081c0 6.49 0 12.976-.003 19.466.053.346.244.66.498.897.011.004.036.007.046.01.131.139.318.206.495.27.13-.008.258.049.389.035h10.386c.099-.004.201.014.297-.025l.01-.053c.004-.018.007-.056.011-.078.223-1.243.438-2.49.675-3.734l.021-.159c-.96-.003-1.925 0-2.886-.003-.234-.008-.474 0-.707-.029-.4-.017-.802-.003-1.201-.042-.495 0-.986-.046-1.48-.046-.389-.039-.781-.025-1.173-.042-.254-.032-.516-.018-.774-.029-.42-.046-.848-.014-1.268-.06-.445.004-.89-.035-1.336-.046l.008-.02c.148.003.293-.008.441-.012.329-.042.66-.014.99-.06.342 0 .681-.045 1.024-.045.304-.043.611-.018.915-.06.357 0 .706-.046 1.063-.05.294-.039.59-.018.883-.056.343.003.682-.05 1.025-.046.336-.04.678-.029 1.014-.064-.032-.13-.057-.262-.085-.392-.025-.082-.123-.064-.187-.074q-1.15-.166-2.293-.325c.05-.04.117-.022.173-.029.594-.046 1.184-.099 1.777-.141.135-.007.265-.032.4-.035-.06-.184-.096-.385-.177-.555-1.268-.194-2.537-.367-3.801-.576.328-.053.66-.078.989-.113l.028-.01c1.05-.11 2.102-.234 3.151-.336 1.332-.007 2.66-.004 3.992 0 .043-.007.117.014.124-.046l.325-1.717c.152-.795.392-1.58.763-2.303a6.8 6.8 0 0 1 2.628-2.812c1.05-.615 2.265-.912 3.473-.968a5.5 5.5 0 0 1 1.177.024c.254.06.515.13.717.304.166.134.265.332.339.53.163.47.254.957.332 1.448.004.198.039.42-.067.601-.099.177-.297.261-.484.314-.682.177-1.396.011-2.077.177a2.53 2.53 0 0 0-1.442.88c-.42.523-.643 1.172-.766 1.823-.096.58-.216 1.158-.311 1.741.671.004 1.346-.003 2.02.004.269 0 .545.148.654.403.141.325.11.692.064 1.035a3.8 3.8 0 0 1-.322 1.12c-.145.3-.385.576-.713.682-.17.067-.354.052-.534.052-.594 0-1.187.008-1.78 0-.096.435-.159.88-.244 1.322q-.232 1.288-.463 2.582a1 1 0 0 0-.007.12c.279.014.558 0 .837.007 2.07 0 4.144-.003 6.218 0 .223.008.449-.046.643-.155.117-.042.187-.145.29-.201.099-.057.127-.173.212-.248.091-.162.187-.332.194-.523a.3.3 0 0 0 .053-.007c-.011-6.5 0-13-.007-19.5Z" fill="url(#b)" stroke="#fcd109" stroke-width=".003"/><path d="M89.997 5.56c.3-.095.615-.031.922-.052 5.77.003 11.538 0 17.307 0 .343-.015.643.18.961.279.255.102.519.183.774.293.053.021.092.067.131.106-.004.466 0 .936 0 1.406.003.124-.018.25.024.37.074.011.113.068.163.114.233.106.431.279.643.42.318.226.657.424.968.657a.6.6 0 0 1-.025.272c-.032.1-.011.205-.021.304-8.37.004-16.735 0-25.101.004-.018-.117.014-.233-.035-.343-.007-.092-.04-.212.05-.275.352-.248.727-.47 1.073-.732q.322-.207.632-.42c.043-.07.029-.16.029-.237q0-.768.003-1.537c.12-.155.329-.173.495-.25.336-.128.675-.251 1.007-.378Zm.021.06c-.452.174-.908.34-1.36.513-.06.01-.092.063-.124.11a1 1 0 0 1 .007.105c-.003.424 0 .848-.003 1.272.003.106-.01.212.028.308a1 1 0 0 1-.152.127c-.512.332-1.007.692-1.52 1.02-.087.054-.186.124-.158.241-.018.064.014.117.081.099 1.11-.007 2.215.007 3.325-.01 1.65 0 3.296.003 4.946 0l.024-.011c.075.017.149.01.226.01 2.99 0 5.978.004 8.97 0 .94.004 1.883 0 2.826 0 1.555 0 3.113.014 4.667.007q.069-.014.043-.099c-.004-.056.017-.134-.043-.17-.247-.116-.459-.296-.696-.437-.084-.07-.194-.11-.257-.205-.244-.138-.47-.307-.711-.46-.046-.028-.081-.074-.12-.112a.8.8 0 0 0 .029-.234c-.004-.448 0-.897-.004-1.346.011-.07.007-.152-.057-.197-.423-.152-.844-.315-1.264-.47a1.5 1.5 0 0 0-.417-.12H90.248c-.078.003-.152.042-.23.06Z" fill="#f8f3b5" stroke="#f8f3b5" stroke-width=".003"/><path d="M88.542 6.348c.31.131.643.205.957.332.17.067.223.251.297.4a1.5 1.5 0 0 1-.251.19c-.325.22-.657.431-.979.657-.038-.095-.024-.2-.028-.307.004-.424 0-.848.004-1.272Zm20.543.332c.314-.123.643-.208.958-.332.003.449 0 .898.003 1.346a1 1 0 0 1-.028.233c-.276-.19-.555-.37-.83-.558-.135-.099-.283-.173-.403-.293.074-.148.131-.329.3-.396Z" fill="#f7b402" stroke="#f7b402" stroke-width=".003"/><path d="M93.933 6.825c.388-.092.823.255.791.66.004.4-.417.725-.802.633a.77.77 0 0 1-.4-.272.66.66 0 0 1-.052-.643c.07-.198.261-.332.463-.378Zm10.079.223c.162-.18.42-.283.661-.22.18.054.356.17.434.347.156.304.035.714-.268.873a.68.68 0 0 1-.813-.138c-.208-.237-.223-.626-.014-.862Z" fill="#bda727" stroke="#bda727" stroke-width=".003"/><path d="M89.545 7.27c.088-.056.177-.116.25-.19l.025.024c.025.184.008.371.015.555-.01.551.01 1.106-.014 1.657-1.028 0-2.056-.007-3.085 0-.028-.117.071-.187.16-.24.512-.329 1.006-.69 1.519-1.021a1 1 0 0 0 .151-.128c.322-.226.654-.438.979-.657Zm19.204-.07q0-.067.036-.124c.12.12.268.194.402.293.276.188.555.368.831.558.039.04.074.085.12.114.24.151.466.321.71.459.064.095.173.134.258.205.237.141.448.321.696.438.06.035.039.113.042.17-1.028.003-2.052-.004-3.08.003-.018-.141-.008-.283-.011-.42 0-.566-.007-1.131-.004-1.696Z" fill="#f7e62d" stroke="#f7e62d" stroke-width=".003"/><path d="M111.844 9.312c-1.028.004-2.052-.003-3.08.004-.018-.141-.007-.283-.011-.42 0-.566-.007-1.131-.004-1.696q0-.067.036-.124c.074-.148.13-.328.3-.396.314-.123.643-.208.958-.332.01-.07.007-.152-.057-.197-.424-.152-.844-.315-1.265-.47a1.4 1.4 0 0 0-.417-.12H90.248c-.078.003-.152.042-.23.06-.452.173-.908.339-1.36.512-.06.01-.092.063-.124.11a1 1 0 0 1 .008.105c.31.131.642.205.957.332.17.068.223.251.297.4l.024.024c.025.184.008.371.015.555-.011.551.01 1.106-.015 1.657-1.028 0-2.056-.007-3.084 0-.017.064.014.117.081.099 1.11-.007 2.216.007 3.325-.01 1.65 0 3.296.003 4.946 0l.025-.011c.074.017.148.01.226.01 2.989 0 5.977.004 8.97 0 .939.004 1.883 0 2.826 0 1.554 0 3.112.014 4.667.007q.069-.014.042-.099ZM93.47 7.203c.07-.198.261-.332.463-.378.388-.092.823.255.791.66.004.4-.417.725-.802.633a.77.77 0 0 1-.399-.272.66.66 0 0 1-.053-.643Zm10.542-.155c.162-.18.42-.283.661-.22.18.054.356.17.434.347.156.304.035.714-.268.873a.68.68 0 0 1-.813-.138c-.208-.237-.223-.625-.014-.862Z" fill="url(#c)" stroke="#fcd109" stroke-width=".003"/><path d="M104.912 10.865c.05.01-.257-.295-.197-.31.056.008.271-.158.53-.023.259.136.195.454.165.572a.64.64 0 0 1-.195.3c-.039.032-.126.081-.179.078.032-.174-.07-.202-.077-.378z" fill="url(#d)" stroke="#fcd109" stroke-width=".003"/><path d="M93.618 11.056c-.007.177-.11.205-.077.378-.053.004-.14-.045-.18-.077a.64.64 0 0 1-.194-.3c-.03-.118-.094-.436.165-.572.26-.135.474.03.53.024.06.014-.247.32-.197.309z" fill="url(#e)" stroke="#fcd109" stroke-width=".003"/><path d="M104.45 13.128c.053-.046.088-.046.159-.046-.424.918-.918 1.837-1.662 2.552q-.12.107-.252.197c-.085.063-.168.12-.251.18a9 9 0 0 0-.241.173c-.201.11-.378.261-.6.328a5.7 5.7 0 0 1-1.286.417c-.173.029-.35.07-.527.074-.219.064-.452.018-.674.032-.124.021-.234-.05-.354-.035a6 6 0 0 1-.624-.127c-1.62-.506-3.209-1.742-3.672-3.414a2 2 0 0 1-.031-.342q.073.149.153.295c.66 1.436 1.966 2.567 3.51 2.908.126.057.262.037.382.086.11 0 .215-.003.321.032.364.007.728.004 1.092.004.05.003.095-.022.145-.032.606-.02 1.2-.186 1.754-.437q.165-.075.327-.16a4 4 0 0 0 .529-.34 5.85 5.85 0 0 0 1.603-1.962q.11-.209.199-.383Z" fill="#bda727" stroke="#bda727" stroke-width=".003"/><path d="M103.874 16.269c1.049-.615 2.265-.912 3.473-.968a5.5 5.5 0 0 1 1.176.024c.255.06.516.131.718.304-.103.007-.202-.039-.304-.053-.29-.056-.59-.035-.883-.042-.852 0-1.71.067-2.534.3-.431.13-.862.283-1.254.509a6.3 6.3 0 0 0-1.784 1.462c-.883 1.014-1.402 2.3-1.653 3.611-.12.703-.258 1.402-.368 2.109-.176.018-.356.007-.533.007q-1.165-.004-2.332-.014c-.166.007-.328-.032-.494-.021-1.413.007-2.827-.004-4.24-.004l.029-.01c1.049-.11 2.102-.234 3.15-.336a492 492 0 0 1 3.993 0c.042-.007.117.014.124-.046l.325-1.717c.152-.795.392-1.58.763-2.303a6.8 6.8 0 0 1 2.628-2.812Z" fill="#0d69b3" stroke="#0d69b3" stroke-width=".003"/><path d="M105.52 15.834c.823-.233 1.682-.3 2.533-.3.293.007.594-.014.883.042.103.014.202.06.304.053.166.134.265.332.339.53.163.47.255.957.333 1.449.003.197.038.42-.068.6-.099.177-.296.262-.484.315-.681.176-1.395.01-2.077.176a2.53 2.53 0 0 0-1.441.88c-.421.523-.643 1.173-.767 1.823-.095.58-.215 1.159-.311 1.741-.042.131-.067.273-.092.41.668.01 1.336 0 2.003.007.255-.007.509.007.764-.01.141.325.109.692.063 1.035a3.8 3.8 0 0 1-.321 1.12c-.145.3-.385.576-.714.682-.17.067-.353.053-.533.053-.594 0-1.188.007-1.781 0-.095.434-.159.88-.244 1.32q-.23 1.29-.463 2.583l-.007.12v.004c-1.543 0-3.084.004-4.628 0 .004-.014.007-.039.01-.053.005-.018.008-.056.012-.078l.01.106c.096.01.269.06.293-.077.24-1.3.463-2.608.71-3.908a.7.7 0 0 0-.293-.003q-.02.075-.046.148l.022-.159c-.961-.004-1.926 0-2.887-.004-.233-.006-.473 0-.706-.028-.4-.017-.802-.003-1.201-.042-.495 0-.986-.046-1.48-.046-.39-.039-.781-.025-1.174-.043-.254-.031-.515-.017-.773-.028-.42-.046-.848-.014-1.269-.06-.445.004-.89-.035-1.335-.046l.007-.02c.148.003.293-.008.442-.012.328-.042.66-.014.989-.06.343 0 .682-.046 1.025-.046.303-.042.61-.017.914-.06.357 0 .707-.046 1.064-.049.293-.039.59-.018.883-.057.343.004.682-.049 1.025-.045.335-.04.678-.029 1.014-.064-.032-.13-.057-.262-.085-.392-.025-.082-.124-.064-.187-.075q-1.15-.166-2.293-.324c.05-.04.116-.022.173-.029.593-.046 1.183-.099 1.777-.141.134-.007.265-.032.399-.035-.06-.184-.095-.385-.177-.555-1.268-.194-2.536-.367-3.8-.576.328-.053.66-.078.988-.113 1.413 0 2.827.01 4.24.004.166-.011.328.028.494.02q1.167.01 2.332.015c.177 0 .357.01.533-.007.11-.707.248-1.406.368-2.11.251-1.31.77-2.596 1.653-3.61a6.3 6.3 0 0 1 1.784-1.462c.392-.226.823-.378 1.254-.509Z" fill="#107bd4" stroke="#107bd4" stroke-width=".003"/><path d="M104.764 23.143c.671.004 1.346-.003 2.02.004.269 0 .545.148.654.403-.254.017-.509.003-.763.01-.668-.007-1.336.004-2.003-.007.025-.137.049-.279.092-.41Zm-5.211 3.31a.8.8 0 0 1 .293.004c-.247 1.3-.47 2.607-.71 3.908-.025.137-.198.088-.293.077-.004-.024-.007-.077-.011-.106.223-1.243.438-2.49.675-3.734q.025-.075.046-.148Z" fill="#0d69b3" stroke="#0d69b3" stroke-width=".003"/><path d="M105.073 10.964a.4.4 0 0 1-.032-.177l-.028.004c-.043-.156-.173-.304-.343-.311-.127-.01-.286-.007-.36.113-.141.19-.074.434-.081.65l.003.053c0 .145-.017.286-.042.427a.3.3 0 0 0-.032.138c-.06.332-.18.66-.343.961a.4.4 0 0 0-.067.138 5 5 0 0 1-.364.523.4.4 0 0 0-.056.06c-.092.113-.191.208-.293.307-.025.014-.043.032-.064.046-.12.117-.254.226-.399.314q-.026.017-.057.04c-.904.596-2.003.844-3.073.854a5.74 5.74 0 0 1-2.643-.558l-.064-.028c-.137-.074-.279-.138-.406-.23-.028-.014-.056-.032-.088-.046a3 3 0 0 1-.371-.261c-.039-.036-.081-.064-.124-.095a3 3 0 0 1-.367-.336q-.043-.047-.085-.089a3.5 3.5 0 0 1-.844-1.416c-.152-.42-.13-.88-.149-1.321-.127-.195-.395-.304-.607-.184-.088.064-.1.18-.166.261-.11 1.166.388 2.328 1.183 3.17q0 .04.04.056c.14.13.278.265.42.392q.036.039.084.07c.142.117.294.223.442.333a1 1 0 0 0 .088.056c.195.113.378.248.587.325.014.01.038.029.053.036.67.321 1.395.54 2.137.61q.122 0 .244.025c.353.022.706.011 1.06.004 1.091-.095 2.218-.36 3.13-1.003l.01.014c.029-.025.053-.046.082-.067a9 9 0 0 0 .526-.42c.155-.17.336-.326.466-.52l.022.01c.01-.017.028-.053.039-.07q.178-.246.335-.502c.007-.01.025-.028.032-.039l-.014-.014c.01-.014.035-.042.046-.056.194-.396.367-.81.427-1.247a.06.06 0 0 0 .039-.057c.004-.141.053-.275.039-.417.031-.173.035-.35.028-.526Z" fill="#fff" stroke="#fff" stroke-width=".003"/><mask id="f" style="mask-type:luminance" maskUnits="userSpaceOnUse" x="93" y="10" width="13" height="6"><path d="M105.073 10.964a.4.4 0 0 1-.032-.177l-.028.004c-.043-.156-.173-.304-.343-.311-.127-.01-.286-.007-.36.113-.141.19-.074.434-.081.65l.003.053c0 .145-.017.286-.042.427a.3.3 0 0 0-.032.138c-.06.332-.18.66-.343.961a.4.4 0 0 0-.067.138 5 5 0 0 1-.364.523.4.4 0 0 0-.056.06c-.092.113-.191.208-.293.307-.025.014-.043.032-.064.046-.12.117-.254.226-.399.314q-.026.017-.057.04c-.904.596-2.003.844-3.073.854a5.74 5.74 0 0 1-2.643-.558l-.064-.028c-.137-.074-.279-.138-.406-.23-.028-.014-.056-.032-.088-.046a3 3 0 0 1-.371-.261c-.039-.036-.081-.064-.124-.095a3 3 0 0 1-.367-.336q-.043-.047-.085-.089a3.5 3.5 0 0 1-.844-1.416c-.152-.42-.13-.88-.149-1.321-.127-.195-.395-.304-.607-.184-.088.064-.1.18-.166.261-.11 1.166.388 2.328 1.183 3.17q0 .04.04.056c.14.13.278.265.42.392q.036.039.084.07c.142.117.294.223.442.333a1 1 0 0 0 .088.056c.195.113.378.248.587.325.014.01.038.029.053.036.67.321 1.395.54 2.137.61q.122 0 .244.025c.353.022.706.011 1.06.004 1.091-.095 2.218-.36 3.13-1.003l.01.014c.029-.025.053-.046.082-.067a9 9 0 0 0 .526-.42c.155-.17.336-.326.466-.52l.022.01c.01-.017.028-.053.039-.07q.178-.246.335-.502c.007-.01.025-.028.032-.039l-.014-.014c.01-.014.035-.042.046-.056.194-.396.367-.81.427-1.247a.06.06 0 0 0 .039-.057c.004-.141.053-.275.039-.417.031-.173.035-.35.028-.526" fill="#fff"/></mask><g mask="url(#f)"><path d="M93.256 10.845c.286.09.944-.137 1.13.07m-.965.8c.274-.095.863-.32 1.107-.187m-.825 1.06c.133.042.394-.19.524-.26a2 2 0 0 1 .607-.212m-.707 1.39c.137-.195.3-.356.499-.494.195-.137.731-.503.962-.378m-1.06 1.531c.155-.123.218-.341.381-.471.198-.157.5-.185.702-.282m-.418 1.242c.047-.342.393-.754.724-.724m-.212 1.201c.175-.018.323-.409.441-.542.178-.198.361-.26.596-.33m-.024 1.296c-.011-.247.244-.956.542-.919m.212 1.154c-.013-.292.138-1.17.494-1.2m.283 1.672c-.068-.409-.063-1 .259-1.296m.707 1.39c-.036-.34-.375-1.03 0-1.296m1.036 1.06c-.162-.187-.256-.926-.189-1.13m1.178.965c-.125-.226-.279-.438-.326-.701-.028-.157.021-.38-.004-.5m1.154.848c-.27-.177-.345-.826-.259-1.107m1.06.754c-.192-.413-.397-.732-.4-1.201m1.177.447c-.298-.2-.679-.566-.636-.966m1.461.33c-.454-.1-.999-.506-1.272-.871m1.649.094c-.328-.07-1.409-.492-1.343-.919m1.696.095c-.456-.168-1.12-.318-1.484-.636m1.719-.118c-.287.024-.699-.115-.991-.165-.324-.056-.624-.165-.94-.236m1.649-.33c-.554.034-1.074-.156-1.578-.329" stroke="#d1d1d1" stroke-width=".071"/></g><path d="M34.248 12.473c.512-.078 1.101-.126 1.536.193.27.202.367.57.348.898.019.54-.232 1.12-.715 1.4-.425.232-.937.252-1.41.203-.32-.038-.638-.212-.802-.502-.367-.84.087-2.028 1.043-2.192Zm-15.32.608c.03-.29.29-.55.59-.54 2.231 0 4.453.009 6.674 0 .242-.02.503.086.619.298.164.29.019.609 0 .909-.068.405-.049.946-.522 1.1-1.623.049-3.245 0-4.868.02-.155 1.024-.3 2.038-.454 3.052 0 .039.01.126.01.164 1.188-.01 2.375 0 3.564-.01.328-.019.676.262.647.61-.03.357-.107.704-.155 1.062a.63.63 0 0 1-.483.512c-1.323.029-2.666-.03-3.989.029-.212 1.458-.464 2.917-.686 4.375-.029.29-.26.541-.55.55q-.826.015-1.652 0c-.357.01-.647-.386-.55-.724.589-3.805 1.197-7.601 1.806-11.407Zm9.814-.522c.503-.038 1.014-.01 1.517-.019.309-.02.618.222.647.541 0 .251-.068.502-.097.753-.405 2.59-.82 5.178-1.226 7.766-.058.416-.164.86-.039 1.285.145.425.792.241.947.686.096.357-.01.734-.04 1.1-.028.484-.579.59-.955.697-.821.154-1.816.038-2.405-.638-.425-.493-.454-1.188-.367-1.806a3564 3564 0 0 1 1.545-9.862.58.58 0 0 1 .473-.503Zm19.174.522c.029-.29.29-.54.58-.54h1.468c.367-.01.666.386.58.733-.339 2.145-.687 4.289-1.025 6.433.512-.077 1.092-.174 1.45-.59a9 9 0 0 0 1.458-2.279c.125-.318.193-.782.608-.84.55-.02 1.11-.01 1.662 0 .376-.01.656.415.53.763-.144.512-.386.985-.637 1.44-.56.907-1.178 1.806-1.99 2.52.358 1.073.812 2.116 1.208 3.169.116.347.396.753.135 1.091-.3.406-.86.203-1.275.251-.435-.048-1.062.174-1.304-.319-.454-1.053-.83-2.134-1.294-3.187-.27.01-.55.02-.821-.01l-.078.155q-.22 1.449-.454 2.898c-.057.231-.241.434-.492.454-.512.019-1.034.01-1.555.01a.6.6 0 0 1-.522-.339c-.097-.193-.039-.415-.01-.628.6-3.728 1.189-7.457 1.778-11.185Zm26.843 1.053a.6.6 0 0 1 .599-.445c.386.01.782-.01 1.178.01.319.01.57.329.531.638-.058.55-.193 1.1-.232 1.651.377 0 .763-.01 1.14 0 .338 0 .618.348.56.676-.048.3-.116.59-.164.89a.63.63 0 0 1-.502.492c-.464.029-.918-.02-1.372.029-.193 1.294-.406 2.588-.608 3.883-.03.3-.049.637.125.898.261.319.715.203 1.082.241.29.087.473.406.425.696-.048.328-.058.657-.135.976-.116.357-.531.425-.85.511-.88.232-1.893.232-2.676-.28-.724-.492-.84-1.449-.763-2.26.203-1.565.522-3.12.696-4.694-.27.01-.6.048-.802-.194-.232-.241-.116-.598-.077-.898.058-.319.048-.734.396-.908.28-.106.599-.029.898-.067.183-.618.357-1.237.55-1.845Zm-5.458 3.13c.609-.61 1.343-1.111 2.183-1.362.367-.165.84.144.83.55-.067.531-.192 1.053-.28 1.574a.615.615 0 0 1-.521.512c-.947.165-1.768.734-2.424 1.41-.165.203-.406.397-.435.677a577 577 0 0 1-.628 4.057c-.029.29-.28.57-.58.55h-1.468c-.338.02-.637-.319-.599-.657.425-2.675.85-5.341 1.266-8.017.02-.27.212-.531.493-.56.357-.02.714-.01 1.081-.01.29 0 .56.261.56.56 0 .416-.038.84-.048 1.266.232-.145.377-.377.57-.55Zm-36.106-1.227c.522-.107 1.063-.02 1.584-.049.3-.038.618.155.667.454.038.27-.039.532-.068.792-.396 2.483-.792 4.965-1.178 7.448-.03.28-.261.56-.56.55-.522 0-1.044.01-1.575-.01-.328-.038-.57-.415-.483-.734.415-2.578.812-5.148 1.227-7.727.02-.28.097-.608.386-.724Zm31.257.125c-1.439-.27-2.907-.463-4.366-.318-1.304.164-2.617.753-3.419 1.825-1.11 1.41-1.488 3.303-1.236 5.061.135.84.502 1.69 1.188 2.212.637.493 1.497.56 2.27.435 1.081-.212 1.999-.908 2.752-1.68.039.328-.038.656-.019.975.02.3.29.58.59.56h.985c.29 0 .53-.27.55-.55.415-2.618.83-5.226 1.237-7.834.057-.328-.203-.647-.532-.686Zm-2.714 4.55c-.386.724-.927 1.381-1.536 1.941-.347.29-.792.59-1.265.493-.464-.097-.686-.58-.792-.995a4.25 4.25 0 0 1 .589-3.197c.27-.435.705-.763 1.207-.899.706-.174 1.45-.087 2.135.107l.039.038c-.087.84-.251 1.671-.377 2.512Zm-16.247-1.45c-.01-.965-.27-1.98-.946-2.704-.464-.512-1.16-.772-1.836-.763-1.12-.038-2.173.512-2.994 1.246-.183.145-.309.358-.512.474 0-.32.03-.638.02-.966.01-.3-.27-.56-.56-.56h-.986c-.309 0-.56.27-.58.57-.608 3.863-1.226 7.727-1.835 11.59-.087.358.223.725.59.715.54-.01 1.091.039 1.622-.039.425-.116.416-.608.483-.966.155-.85.261-1.7.358-2.56 1.903.368 4.115.117 5.534-1.323 1.16-1.265 1.7-3.013 1.642-4.713Zm-2.704.976c-.058.889-.377 1.787-.995 2.434-.802.764-2.019.657-3.004.397a1 1 0 0 1-.058-.116c.155-.84.232-1.69.425-2.521.54-.889 1.198-1.787 2.135-2.28.347-.164.82-.126 1.072.193.425.532.463 1.246.425 1.893Z" fill="#fff" stroke="#fff" stroke-width=".004"/></g><defs><linearGradient id="b" x1="99.294" y1="9.729" x2="99.294" y2="30.494" gradientUnits="userSpaceOnUse"><stop stop-color="#f7e830"/><stop offset="1" stop-color="#fdcb06"/></linearGradient><linearGradient id="d" x1="105.072" y1="10.479" x2="105.078" y2="11.462" gradientUnits="userSpaceOnUse"><stop stop-color="#fada1c"/><stop offset="1" stop-color="#fdcb06"/></linearGradient><linearGradient id="e" x1="93.505" y1="10.431" x2="93.499" y2="11.415" gradientUnits="userSpaceOnUse"><stop stop-color="#fada1c"/><stop offset="1" stop-color="#fdcb06"/></linearGradient><radialGradient id="c" cx="0" cy="0" r="1" gradientUnits="userSpaceOnUse" gradientTransform="translate(99.186 19.2)scale(16.8898)"><stop offset=".596" stop-color="#f29405"/><stop offset=".736" stop-color="#f7d01e"/><stop offset="1" stop-color="#fdcb06"/></radialGradient><clipPath id="a"><path fill="#fff" d="M17.102 5.504h94.796v24.991H17.102z"/></clipPath></defs></svg>