<svg width="129" height="36" viewBox="0 0 129 36" fill="none" xmlns="http://www.w3.org/2000/svg"><path d="M40.555 16.734a.75.75 0 0 0-.7.474.78.78 0 0 0 .164.837.755.755 0 0 0 1.294-.543.78.78 0 0 0-.222-.543.76.76 0 0 0-.536-.225m-18.467 0a.77.77 0 0 0-.7.474.78.78 0 0 0 .163.837.754.754 0 0 0 1.167-.116.774.774 0 0 0-.34-1.136.8.8 0 0 0-.29-.059m10.41-.414q-1.728-.433-2.206-.748a.97.97 0 0 1-.477-.853 1.07 1.07 0 0 1 .39-.863 1.63 1.63 0 0 1 1.068-.324q1.684 0 3.265 1.214l1.533-.333-.16-1.67a6.5 6.5 0 0 0-2.118-1.199 7.4 7.4 0 0 0-2.431-.422q-1.86 0-3.1.95t-1.242 2.7q0 1.749.982 2.568.982.82 3.1 1.33 1.337.335 1.79.659a1.02 1.02 0 0 1 .45.88 1.05 1.05 0 0 1-.425.88 1.9 1.9 0 0 1-1.173.324q-1.665 0-3.625-1.736l.009 1.672-1.613.342q2.302 2.15 5.179 2.15 1.995 0 3.222-1.03c.395-.32.71-.73.923-1.195.212-.465.316-.974.301-1.486q0-1.655-.955-2.516-.956-.862-2.687-1.294" fill="#fff"/><path d="m42.895 15.573-9.651-9.778A2.68 2.68 0 0 0 31.34 5c-.713 0-1.398.286-1.904.795l-9.652 9.778A2.75 2.75 0 0 0 19 17.5c0 .722.282 1.415.785 1.927l9.652 9.776c.505.51 1.19.796 1.903.796s1.397-.286 1.903-.796l9.65-9.776a2.75 2.75 0 0 0 .786-1.927c0-.722-.281-1.416-.784-1.928m-14.777 4.1q1.96 1.737 3.626 1.738a1.9 1.9 0 0 0 1.172-.326 1.04 1.04 0 0 0 .425-.88 1.04 1.04 0 0 0-.45-.88q-.453-.323-1.79-.658-2.12-.51-3.1-1.33-.979-.819-.982-2.568 0-1.749 1.243-2.7t3.1-.95c.828.003 1.65.146 2.432.422a6.5 6.5 0 0 1 2.119 1.197l.158 1.672-1.534.333q-1.577-1.215-3.264-1.215a1.62 1.62 0 0 0-1.068.324 1.06 1.06 0 0 0-.39.863.98.98 0 0 0 .477.854q.477.316 2.207.748 1.728.43 2.683 1.292t.955 2.516a3.35 3.35 0 0 1-.301 1.486 3.3 3.3 0 0 1-.923 1.195q-1.225 1.03-3.223 1.03-2.875 0-5.179-2.15l1.618-.342z" fill="#ed264f"/><path d="M57.073 10.903c-2.854 0-4.959 1.87-4.959 4.412 0 1.89.709 2.794 3.117 4.055 1.275.651 1.579.987 1.579 1.596 0 .862-.729 1.429-1.802 1.429-.93 0-1.639-.294-2.854-1.155l-1.538 2.689c1.802 1.155 2.935 1.533 4.554 1.533 3.016 0 5.162-1.975 5.162-4.79 0-1.849-.77-2.836-2.996-3.928-1.376-.673-1.72-1.009-1.72-1.681 0-.756.587-1.219 1.518-1.219.728 0 1.457.316 2.368 1.03L61 12.184c-1.316-.881-2.55-1.28-3.927-1.28m5.002 4.894L60.395 30h3.32l.769-6.408c.89 1.303 1.882 1.87 3.259 1.87 2.59 0 4.311-2.143 4.311-5.399 0-2.794-1.437-4.538-3.724-4.538-1.174 0-2.004.378-3.178 1.47l.263-1.197zm4.453 6.954c-1.093 0-1.801-.777-1.801-1.975 0-1.428.91-2.52 2.145-2.52 1.093 0 1.782.756 1.782 1.953 0 1.47-.891 2.542-2.126 2.542m7.31-6.954-1.113 9.391h3.34l1.113-9.39zM74 11.891c0 1.05.81 1.89 1.822 1.89s1.822-.84 1.822-1.89S76.834 10 75.822 10 74 10.84 74 11.89m4.682 3.908L77.57 25.19h3.34l.506-4.244c.222-1.87.688-2.542 1.76-2.542.77 0 1.215.526 1.215 1.492 0 .336-.02.61-.08 1.155l-.507 4.14h3.34l.627-5.274a12 12 0 0 0 .102-1.534c0-1.848-1.012-2.857-2.854-2.857-1.235 0-2.045.357-3.28 1.492l.284-1.219zm10.951 0L88.52 25.19h3.34l.506-4.244c.222-1.87.688-2.542 1.76-2.542.77 0 1.215.526 1.215 1.492 0 .336-.02.61-.08 1.155l-.507 4.14h3.34l.627-5.274a12 12 0 0 0 .102-1.534c0-1.848-1.012-2.857-2.854-2.857-1.235 0-2.045.357-3.28 1.492l.284-1.219zm18.178 0-1.741 2.963a20 20 0 0 0-1.194 2.268c-.223-1.155-.385-1.743-.749-2.689l-.971-2.542h-3.705l3.198 8.656L99.411 30h3.745l8.46-14.202z" fill="#fff"/></svg>